<svg xmlns="http://www.w3.org/2000/svg" width="1600" height="553" viewBox="0 0 1600 553" role="img" aria-labelledby="title desc">
<title>Recipe Benchmark: Execution-Only Median Time</title>
<desc>Steady-state runtime on the default workload for recipes that passed checksum validation.</desc>
<defs>
<linearGradient id="bar-gradient-0" x1="0%" y1="0%" x2="100%" y2="0%">
<stop offset="0%" stop-color="#619EFF"/>
<stop offset="100%" stop-color="#306ED1"/>
</linearGradient>
<linearGradient id="bar-gradient-1" x1="0%" y1="0%" x2="100%" y2="0%">
<stop offset="0%" stop-color="#43C6B8"/>
<stop offset="100%" stop-color="#109788"/>
</linearGradient>
<linearGradient id="bar-gradient-2" x1="0%" y1="0%" x2="100%" y2="0%">
<stop offset="0%" stop-color="#FA8F45"/>
<stop offset="100%" stop-color="#CC5E12"/>
</linearGradient>
<linearGradient id="bar-gradient-3" x1="0%" y1="0%" x2="100%" y2="0%">
<stop offset="0%" stop-color="#A9B5C6"/>
<stop offset="100%" stop-color="#798697"/>
</linearGradient>
</defs>
<rect width="100%" height="100%" fill="#0B1118"/>
<rect x="12" y="12" width="1576" height="529" rx="18" fill="#0F1722" stroke="#1F2937"/>
<text x="44" y="62" fill="#F8FAFC" font-size="34" font-family="Segoe UI, Arial, sans-serif" font-weight="700">Recipe Benchmark: Execution-Only Median Time</text>
<text x="44" y="95" fill="#94A3B8" font-size="18" font-family="Segoe UI, Arial, sans-serif">Steady-state runtime on the default workload for recipes that passed checksum validation.</text>
<line x1="240.0" y1="115" x2="240.0" y2="383" stroke="#182231" stroke-width="1"/>
<text x="240.0" y="409" text-anchor="middle" fill="#64748B" font-size="15" font-family="Segoe UI, Arial, sans-serif">0.00ms</text>
<line x1="476.0" y1="115" x2="476.0" y2="383" stroke="#182231" stroke-width="1"/>
<text x="476.0" y="409" text-anchor="middle" fill="#64748B" font-size="15" font-family="Segoe UI, Arial, sans-serif">1.32ms</text>
<line x1="712.0" y1="115" x2="712.0" y2="383" stroke="#182231" stroke-width="1"/>
<text x="712.0" y="409" text-anchor="middle" fill="#64748B" font-size="15" font-family="Segoe UI, Arial, sans-serif">2.64ms</text>
<line x1="948.0" y1="115" x2="948.0" y2="383" stroke="#182231" stroke-width="1"/>
<text x="948.0" y="409" text-anchor="middle" fill="#64748B" font-size="15" font-family="Segoe UI, Arial, sans-serif">3.96ms</text>
<line x1="1184.0" y1="115" x2="1184.0" y2="383" stroke="#182231" stroke-width="1"/>
<text x="1184.0" y="409" text-anchor="middle" fill="#64748B" font-size="15" font-family="Segoe UI, Arial, sans-serif">5.28ms</text>
<line x1="1420.0" y1="115" x2="1420.0" y2="383" stroke="#182231" stroke-width="1"/>
<text x="1420.0" y="409" text-anchor="middle" fill="#64748B" font-size="15" font-family="Segoe UI, Arial, sans-serif">6.59ms</text>
<rect x="30" y="141.0" width="92" height="32" rx="10" fill="#3479E6" opacity="0.95"/>
<text x="76.0" y="163.0" text-anchor="middle" fill="#E2E8F0" font-size="14" font-family="Segoe UI, Arial, sans-serif" font-weight="700" letter-spacing="1.1">AST</text>
<rect x="240" y="135" width="1180" height="44" rx="12" fill="#131D2A" stroke="#233041"/>
<rect x="240" y="135" width="1148.8" height="44" rx="12" fill="url(#bar-gradient-0)"/>
<line x1="242.0" y1="137.0" x2="1386.8" y2="137.0" stroke="#F8FAFC" stroke-opacity="0.18"/>
<text x="1402.8" y="164.0" fill="#E2E8F0" font-size="18" font-family="Segoe UI, Arial, sans-serif" font-weight="700">6.42ms</text>
<text x="1556" y="164.0" text-anchor="end" fill="#64748B" font-size="15" font-family="Segoe UI, Arial, sans-serif">31.7% · Interpreted (C + AST) · execution only · 1.00x vs AST</text>
<rect x="30" y="207.0" width="92" height="32" rx="10" fill="#12A695" opacity="0.95"/>
<text x="76.0" y="229.0" text-anchor="middle" fill="#E2E8F0" font-size="14" font-family="Segoe UI, Arial, sans-serif" font-weight="700" letter-spacing="1.1">VM</text>
<rect x="240" y="201" width="1180" height="44" rx="12" fill="#131D2A" stroke="#233041"/>
<rect x="240" y="201" width="1180.0" height="44" rx="12" fill="url(#bar-gradient-1)"/>
<line x1="242.0" y1="203.0" x2="1418.0" y2="203.0" stroke="#F8FAFC" stroke-opacity="0.18"/>
<text x="1434.0" y="230.0" fill="#E2E8F0" font-size="18" font-family="Segoe UI, Arial, sans-serif" font-weight="700">6.59ms</text>
<text x="1556" y="230.0" text-anchor="end" fill="#64748B" font-size="15" font-family="Segoe UI, Arial, sans-serif">32.5% · Interpreted (VM) · execution only · 1.03x vs AST</text>
<rect x="30" y="273.0" width="92" height="32" rx="10" fill="#E06814" opacity="0.95"/>
<text x="76.0" y="295.0" text-anchor="middle" fill="#E2E8F0" font-size="14" font-family="Segoe UI, Arial, sans-serif" font-weight="700" letter-spacing="1.1">C BIN</text>
<rect x="240" y="267" width="1180" height="44" rx="12" fill="#131D2A" stroke="#233041"/>
<rect x="240" y="267" width="281.0" height="44" rx="12" fill="url(#bar-gradient-2)"/>
<line x1="242.0" y1="269.0" x2="519.0" y2="269.0" stroke="#F8FAFC" stroke-opacity="0.18"/>
<text x="535.0" y="296.0" fill="#E2E8F0" font-size="18" font-family="Segoe UI, Arial, sans-serif" font-weight="700">1.57ms</text>
<text x="1556" y="296.0" text-anchor="end" fill="#64748B" font-size="15" font-family="Segoe UI, Arial, sans-serif">7.8% · Compiled (C) · execution only · 0.24x vs AST</text>
<rect x="30" y="339.0" width="94" height="32" rx="10" fill="#8593A6" opacity="0.95"/>
<text x="77.0" y="361.0" text-anchor="middle" fill="#E2E8F0" font-size="14" font-family="Segoe UI, Arial, sans-serif" font-weight="700" letter-spacing="1.1">VM BIN</text>
<rect x="240" y="333" width="1180" height="44" rx="12" fill="#131D2A" stroke="#233041"/>
<rect x="240" y="333" width="1016.0" height="44" rx="12" fill="url(#bar-gradient-3)"/>
<line x1="242.0" y1="335.0" x2="1254.0" y2="335.0" stroke="#F8FAFC" stroke-opacity="0.18"/>
<text x="1270.0" y="362.0" fill="#E2E8F0" font-size="18" font-family="Segoe UI, Arial, sans-serif" font-weight="700">5.68ms</text>
<text x="1556" y="362.0" text-anchor="end" fill="#64748B" font-size="15" font-family="Segoe UI, Arial, sans-serif">28.0% · Compiled (VM) · execution only · 0.88x vs AST</text>
<text x="44" y="435" fill="#94A3B8" font-size="16" font-family="Segoe UI, Arial, sans-serif">Settings: 5 timed runs, 1 warmup on benchmarks/runtime_compare.sage.</text>
<text x="44" y="459" fill="#94A3B8" font-size="16" font-family="Segoe UI, Arial, sans-serif">Totals include compile + link + execution; the run chart isolates execution-only cost.</text>
<text x="44" y="483" fill="#94A3B8" font-size="16" font-family="Segoe UI, Arial, sans-serif">Checksum target: 11520.</text>
<text x="44" y="507" fill="#94A3B8" font-size="16" font-family="Segoe UI, Arial, sans-serif">Compiled (Sage): checksum validation failed against 11520.</text>
<text x="44" y="531" fill="#94A3B8" font-size="16" font-family="Segoe UI, Arial, sans-serif">Last refreshed: 2026-03-24 23:11 UTC</text>
</svg>
