<svg xmlns="http://www.w3.org/2000/svg" width="1600" height="655" viewBox="0 0 1600 655" role="img" aria-labelledby="title desc">
<title>SageLang Repository LOC by Language</title>
<desc>Authored, non-empty tracked lines. Vendored dependencies and build artifacts are excluded.</desc>
<defs>
<linearGradient id="bar-gradient-0" x1="0%" y1="0%" x2="100%" y2="0%">
<stop offset="0%" stop-color="#619EFF"/>
<stop offset="100%" stop-color="#306ED1"/>
</linearGradient>
<linearGradient id="bar-gradient-1" x1="0%" y1="0%" x2="100%" y2="0%">
<stop offset="0%" stop-color="#FA8F45"/>
<stop offset="100%" stop-color="#CC5E12"/>
</linearGradient>
<linearGradient id="bar-gradient-2" x1="0%" y1="0%" x2="100%" y2="0%">
<stop offset="0%" stop-color="#FBD644"/>
<stop offset="100%" stop-color="#CDA711"/>
</linearGradient>
<linearGradient id="bar-gradient-3" x1="0%" y1="0%" x2="100%" y2="0%">
<stop offset="0%" stop-color="#B9A2FB"/>
<stop offset="100%" stop-color="#8972CD"/>
</linearGradient>
<linearGradient id="bar-gradient-4" x1="0%" y1="0%" x2="100%" y2="0%">
<stop offset="0%" stop-color="#9DD645"/>
<stop offset="100%" stop-color="#6CA712"/>
</linearGradient>
<linearGradient id="bar-gradient-5" x1="0%" y1="0%" x2="100%" y2="0%">
<stop offset="0%" stop-color="#F26969"/>
<stop offset="100%" stop-color="#C43838"/>
</linearGradient>
<linearGradient id="bar-gradient-6" x1="0%" y1="0%" x2="100%" y2="0%">
<stop offset="0%" stop-color="#60CAF9"/>
<stop offset="100%" stop-color="#2E9BCB"/>
</linearGradient>
</defs>
<rect width="100%" height="100%" fill="#0B1118"/>
<rect x="12" y="12" width="1576" height="631" rx="18" fill="#0F1722" stroke="#1F2937"/>
<text x="44" y="62" fill="#F8FAFC" font-size="34" font-family="Segoe UI, Arial, sans-serif" font-weight="700">SageLang Repository LOC by Language</text>
<text x="44" y="95" fill="#94A3B8" font-size="18" font-family="Segoe UI, Arial, sans-serif">Authored, non-empty tracked lines. Vendored dependencies and build artifacts are excluded.</text>
<line x1="240.0" y1="115" x2="240.0" y2="581" stroke="#182231" stroke-width="1"/>
<text x="240.0" y="607" text-anchor="middle" fill="#64748B" font-size="15" font-family="Segoe UI, Arial, sans-serif">0</text>
<line x1="476.0" y1="115" x2="476.0" y2="581" stroke="#182231" stroke-width="1"/>
<text x="476.0" y="607" text-anchor="middle" fill="#64748B" font-size="15" font-family="Segoe UI, Arial, sans-serif">6.7K</text>
<line x1="712.0" y1="115" x2="712.0" y2="581" stroke="#182231" stroke-width="1"/>
<text x="712.0" y="607" text-anchor="middle" fill="#64748B" font-size="15" font-family="Segoe UI, Arial, sans-serif">13.5K</text>
<line x1="948.0" y1="115" x2="948.0" y2="581" stroke="#182231" stroke-width="1"/>
<text x="948.0" y="607" text-anchor="middle" fill="#64748B" font-size="15" font-family="Segoe UI, Arial, sans-serif">20.2K</text>
<line x1="1184.0" y1="115" x2="1184.0" y2="581" stroke="#182231" stroke-width="1"/>
<text x="1184.0" y="607" text-anchor="middle" fill="#64748B" font-size="15" font-family="Segoe UI, Arial, sans-serif">26.9K</text>
<line x1="1420.0" y1="115" x2="1420.0" y2="581" stroke="#182231" stroke-width="1"/>
<text x="1420.0" y="607" text-anchor="middle" fill="#64748B" font-size="15" font-family="Segoe UI, Arial, sans-serif">33.6K</text>
<rect x="30" y="141.0" width="92" height="32" rx="10" fill="#3479E6" opacity="0.95"/>
<text x="76.0" y="163.0" text-anchor="middle" fill="#E2E8F0" font-size="14" font-family="Segoe UI, Arial, sans-serif" font-weight="700" letter-spacing="1.1">C</text>
<rect x="240" y="135" width="1180" height="44" rx="12" fill="#131D2A" stroke="#233041"/>
<rect x="240" y="135" width="1180.0" height="44" rx="12" fill="url(#bar-gradient-0)"/>
<line x1="242.0" y1="137.0" x2="1418.0" y2="137.0" stroke="#F8FAFC" stroke-opacity="0.18"/>
<text x="1434.0" y="164.0" fill="#E2E8F0" font-size="18" font-family="Segoe UI, Arial, sans-serif" font-weight="700">33.6K</text>
<text x="1556" y="164.0" text-anchor="end" fill="#64748B" font-size="15" font-family="Segoe UI, Arial, sans-serif">54.5% · 33,647 of 61,759 lines</text>
<rect x="30" y="207.0" width="92" height="32" rx="10" fill="#E06814" opacity="0.95"/>
<text x="76.0" y="229.0" text-anchor="middle" fill="#E2E8F0" font-size="14" font-family="Segoe UI, Arial, sans-serif" font-weight="700" letter-spacing="1.1">SAGE</text>
<rect x="240" y="201" width="1180" height="44" rx="12" fill="#131D2A" stroke="#233041"/>
<rect x="240" y="201" width="765.1" height="44" rx="12" fill="url(#bar-gradient-1)"/>
<line x1="242.0" y1="203.0" x2="1003.1" y2="203.0" stroke="#F8FAFC" stroke-opacity="0.18"/>
<text x="1019.1" y="230.0" fill="#E2E8F0" font-size="18" font-family="Segoe UI, Arial, sans-serif" font-weight="700">21.8K</text>
<text x="1556" y="230.0" text-anchor="end" fill="#64748B" font-size="15" font-family="Segoe UI, Arial, sans-serif">35.3% · 21,816 of 61,759 lines</text>
<rect x="30" y="273.0" width="92" height="32" rx="10" fill="#E1B813" opacity="0.95"/>
<text x="76.0" y="295.0" text-anchor="middle" fill="#111827" font-size="14" font-family="Segoe UI, Arial, sans-serif" font-weight="700" letter-spacing="1.1">JSON</text>
<rect x="240" y="267" width="1180" height="44" rx="12" fill="#131D2A" stroke="#233041"/>
<rect x="240" y="267" width="164.9" height="44" rx="12" fill="url(#bar-gradient-2)"/>
<line x1="242.0" y1="269.0" x2="402.9" y2="269.0" stroke="#F8FAFC" stroke-opacity="0.18"/>
<text x="418.9" y="296.0" fill="#E2E8F0" font-size="18" font-family="Segoe UI, Arial, sans-serif" font-weight="700">4.7K</text>
<text x="1556" y="296.0" text-anchor="end" fill="#64748B" font-size="15" font-family="Segoe UI, Arial, sans-serif">7.6% · 4,703 of 61,759 lines</text>
<rect x="30" y="339.0" width="114" height="32" rx="10" fill="#967DE1" opacity="0.95"/>
<text x="87.0" y="361.0" text-anchor="middle" fill="#E2E8F0" font-size="14" font-family="Segoe UI, Arial, sans-serif" font-weight="700" letter-spacing="1.1">MAKEFILE</text>
<rect x="240" y="333" width="1180" height="44" rx="12" fill="#131D2A" stroke="#233041"/>
<rect x="240" y="333" width="22.4" height="44" rx="12" fill="url(#bar-gradient-3)"/>
<line x1="242.0" y1="335.0" x2="260.4" y2="335.0" stroke="#F8FAFC" stroke-opacity="0.18"/>
<text x="276.4" y="362.0" fill="#E2E8F0" font-size="18" font-family="Segoe UI, Arial, sans-serif" font-weight="700">638</text>
<text x="1556" y="362.0" text-anchor="end" fill="#64748B" font-size="15" font-family="Segoe UI, Arial, sans-serif">1.0% · 638 of 61,759 lines</text>
<rect x="30" y="405.0" width="92" height="32" rx="10" fill="#77B814" opacity="0.95"/>
<text x="76.0" y="427.0" text-anchor="middle" fill="#E2E8F0" font-size="14" font-family="Segoe UI, Arial, sans-serif" font-weight="700" letter-spacing="1.1">SHELL</text>
<rect x="240" y="399" width="1180" height="44" rx="12" fill="#131D2A" stroke="#233041"/>
<rect x="240" y="399" width="17.7" height="44" rx="12" fill="url(#bar-gradient-4)"/>
<line x1="242.0" y1="401.0" x2="255.7" y2="401.0" stroke="#F8FAFC" stroke-opacity="0.18"/>
<text x="271.7" y="428.0" fill="#E2E8F0" font-size="18" font-family="Segoe UI, Arial, sans-serif" font-weight="700">504</text>
<text x="1556" y="428.0" text-anchor="end" fill="#64748B" font-size="15" font-family="Segoe UI, Arial, sans-serif">0.8% · 504 of 61,759 lines</text>
<rect x="30" y="471.0" width="92" height="32" rx="10" fill="#D73D3D" opacity="0.95"/>
<text x="76.0" y="493.0" text-anchor="middle" fill="#E2E8F0" font-size="14" font-family="Segoe UI, Arial, sans-serif" font-weight="700" letter-spacing="1.1">CMAKE</text>
<rect x="240" y="465" width="1180" height="44" rx="12" fill="#131D2A" stroke="#233041"/>
<rect x="240" y="465" width="14.4" height="44" rx="12" fill="url(#bar-gradient-5)"/>
<line x1="242.0" y1="467.0" x2="252.4" y2="467.0" stroke="#F8FAFC" stroke-opacity="0.18"/>
<text x="268.4" y="494.0" fill="#E2E8F0" font-size="18" font-family="Segoe UI, Arial, sans-serif" font-weight="700">410</text>
<text x="1556" y="494.0" text-anchor="end" fill="#64748B" font-size="15" font-family="Segoe UI, Arial, sans-serif">0.7% · 410 of 61,759 lines</text>
<rect x="30" y="537.0" width="134" height="32" rx="10" fill="#32AADF" opacity="0.95"/>
<text x="97.0" y="559.0" text-anchor="middle" fill="#E2E8F0" font-size="14" font-family="Segoe UI, Arial, sans-serif" font-weight="700" letter-spacing="1.1">DOCKERFILE</text>
<rect x="240" y="531" width="1180" height="44" rx="12" fill="#131D2A" stroke="#233041"/>
<rect x="240" y="531" width="1.4" height="44" rx="12" fill="url(#bar-gradient-6)"/>
<line x1="242.0" y1="533.0" x2="242.0" y2="533.0" stroke="#F8FAFC" stroke-opacity="0.18"/>
<text x="255.4" y="560.0" fill="#E2E8F0" font-size="18" font-family="Segoe UI, Arial, sans-serif" font-weight="700">41</text>
<text x="1556" y="560.0" text-anchor="end" fill="#64748B" font-size="15" font-family="Segoe UI, Arial, sans-serif">0.1% · 41 of 61,759 lines</text>
<text x="44" y="633" fill="#94A3B8" font-size="16" font-family="Segoe UI, Arial, sans-serif">Last refreshed: 2026-03-18 16:33 UTC</text>
</svg>
