<svg xmlns="http://www.w3.org/2000/svg" width="1600" height="439" viewBox="0 0 1600 439" role="img" aria-labelledby="title desc">
<title>SageLang Project Breakdown by Area</title>
<desc>62.7K tracked lines across 9 backends, 3 areas.</desc>
<defs>
<linearGradient id="bar-gradient-0" x1="0%" y1="0%" x2="100%" y2="0%">
<stop offset="0%" stop-color="#FBD644"/>
<stop offset="100%" stop-color="#CDA711"/>
</linearGradient>
<linearGradient id="bar-gradient-1" x1="0%" y1="0%" x2="100%" y2="0%">
<stop offset="0%" stop-color="#9DD645"/>
<stop offset="100%" stop-color="#6CA712"/>
</linearGradient>
<linearGradient id="bar-gradient-2" x1="0%" y1="0%" x2="100%" y2="0%">
<stop offset="0%" stop-color="#40C79A"/>
<stop offset="100%" stop-color="#0D986A"/>
</linearGradient>
</defs>
<rect width="100%" height="100%" fill="#0B1118"/>
<rect x="12" y="12" width="1576" height="415" rx="18" fill="#0F1722" stroke="#1F2937"/>
<text x="44" y="62" fill="#F8FAFC" font-size="34" font-family="Segoe UI, Arial, sans-serif" font-weight="700">SageLang Project Breakdown by Area</text>
<text x="44" y="95" fill="#94A3B8" font-size="18" font-family="Segoe UI, Arial, sans-serif">62.7K tracked lines across 9 backends, 3 areas.</text>
<line x1="240.0" y1="115" x2="240.0" y2="317" stroke="#182231" stroke-width="1"/>
<text x="240.0" y="343" text-anchor="middle" fill="#64748B" font-size="15" font-family="Segoe UI, Arial, sans-serif">0</text>
<line x1="476.0" y1="115" x2="476.0" y2="317" stroke="#182231" stroke-width="1"/>
<text x="476.0" y="343" text-anchor="middle" fill="#64748B" font-size="15" font-family="Segoe UI, Arial, sans-serif">11.5K</text>
<line x1="712.0" y1="115" x2="712.0" y2="317" stroke="#182231" stroke-width="1"/>
<text x="712.0" y="343" text-anchor="middle" fill="#64748B" font-size="15" font-family="Segoe UI, Arial, sans-serif">23.0K</text>
<line x1="948.0" y1="115" x2="948.0" y2="317" stroke="#182231" stroke-width="1"/>
<text x="948.0" y="343" text-anchor="middle" fill="#64748B" font-size="15" font-family="Segoe UI, Arial, sans-serif">34.5K</text>
<line x1="1184.0" y1="115" x2="1184.0" y2="317" stroke="#182231" stroke-width="1"/>
<text x="1184.0" y="343" text-anchor="middle" fill="#64748B" font-size="15" font-family="Segoe UI, Arial, sans-serif">46.0K</text>
<line x1="1420.0" y1="115" x2="1420.0" y2="317" stroke="#182231" stroke-width="1"/>
<text x="1420.0" y="343" text-anchor="middle" fill="#64748B" font-size="15" font-family="Segoe UI, Arial, sans-serif">57.5K</text>
<rect x="30" y="141.0" width="164" height="32" rx="10" fill="#E1B813" opacity="0.95"/>
<text x="112.0" y="163.0" text-anchor="middle" fill="#E2E8F0" font-size="14" font-family="Segoe UI, Arial, sans-serif" font-weight="700" letter-spacing="1.1">DOCUMENTATION</text>
<rect x="240" y="135" width="1180" height="44" rx="12" fill="#131D2A" stroke="#233041"/>
<rect x="240" y="135" width="944.0" height="44" rx="12" fill="url(#bar-gradient-0)"/>
<line x1="242.0" y1="137.0" x2="1182.0" y2="137.0" stroke="#F8FAFC" stroke-opacity="0.18"/>
<text x="1198.0" y="164.0" text-anchor="start" fill="#E2E8F0" font-size="18" font-family="Segoe UI, Arial, sans-serif" font-weight="700">57.5K</text>
<text x="1556" y="164.0" text-anchor="end" fill="#64748B" font-size="15" font-family="Segoe UI, Arial, sans-serif">91.8% · 57,506 of 62,666 lines</text>
<rect x="30" y="207.0" width="154" height="32" rx="10" fill="#77B814" opacity="0.95"/>
<text x="107.0" y="229.0" text-anchor="middle" fill="#E2E8F0" font-size="14" font-family="Segoe UI, Arial, sans-serif" font-weight="700" letter-spacing="1.1">BUILD SYSTEM</text>
<rect x="240" y="201" width="1180" height="44" rx="12" fill="#131D2A" stroke="#233041"/>
<rect x="240" y="201" width="80.7" height="44" rx="12" fill="url(#bar-gradient-1)"/>
<line x1="242.0" y1="203.0" x2="318.7" y2="203.0" stroke="#F8FAFC" stroke-opacity="0.18"/>
<text x="334.7" y="230.0" text-anchor="start" fill="#E2E8F0" font-size="18" font-family="Segoe UI, Arial, sans-serif" font-weight="700">4.9K</text>
<text x="1556" y="230.0" text-anchor="end" fill="#64748B" font-size="15" font-family="Segoe UI, Arial, sans-serif">7.8% · 4,919 of 62,666 lines</text>
<rect x="30" y="273.0" width="134" height="32" rx="10" fill="#0EA674" opacity="0.95"/>
<text x="97.0" y="295.0" text-anchor="middle" fill="#E2E8F0" font-size="14" font-family="Segoe UI, Arial, sans-serif" font-weight="700" letter-spacing="1.1">TEST SUITE</text>
<rect x="240" y="267" width="1180" height="44" rx="12" fill="#131D2A" stroke="#233041"/>
<rect x="240" y="267" width="6.0" height="44" rx="12" fill="url(#bar-gradient-2)"/>
<line x1="242.0" y1="269.0" x2="244.0" y2="269.0" stroke="#F8FAFC" stroke-opacity="0.18"/>
<text x="260.0" y="296.0" text-anchor="start" fill="#E2E8F0" font-size="18" font-family="Segoe UI, Arial, sans-serif" font-weight="700">241</text>
<text x="1556" y="296.0" text-anchor="end" fill="#64748B" font-size="15" font-family="Segoe UI, Arial, sans-serif">0.4% · 241 of 62,666 lines</text>
<text x="44" y="369" fill="#94A3B8" font-size="16" font-family="Segoe UI, Arial, sans-serif">Backends: AST interpreter, bytecode VM, C, LLVM IR, native asm (x86-64/aarch64/rv64), JIT, AOT, Kotlin/Android.</text>
<text x="44" y="393" fill="#94A3B8" font-size="16" font-family="Segoe UI, Arial, sans-serif">Test suite: 241 lines.  Standard library: 0 lines.</text>
<text x="44" y="417" fill="#94A3B8" font-size="16" font-family="Segoe UI, Arial, sans-serif">Last refreshed: 2026-06-06 16:26 UTC</text>
</svg>
